<?xml version="1.0" encoding="UTF-8" standalone="no"?>
<svg viewBox="0 0 1000 1200" xmlns="http://www.w3.org/2000/svg" xmlns:xlink="http://www.w3.org/1999/xlink" version="1.1" width="1000" height="1200"><style></style><g transform="translate(500,600)scale(10,10)translate(-50,-60)" style="transition:transform 0.5s"><g transform="translate(0,0)" style="transition:transform 0.5s"></g><g style="transition:transform 0.5s"><g><metadata xmlns:rdf="http://www.w3.org/1999/02/22-rdf-syntax-ns#" xmlns:cc="http://creativecommons.org/ns#" xmlns:dc="http://purl.org/dc/elements/1.1/"><rdf:RDF><rdf:Description dc:title="Herbovnyk Kobzarya" dc:creator="Odessit"></rdf:Description><cc:Work rdf:about="https://heraldicon.org/arms/Eo5RSl/2"><cc:license rdf:resource="private"></cc:license><cc:attributionName>Herbovnyk Kobzarya by Odessit</cc:attributionName><cc:attributionURL rdf:resource="https://heraldicon.org/users/Odessit"></cc:attributionURL></cc:Work><cc:License rdf:about="private"></cc:License></rdf:RDF><rdf:RDF rdf:about="https://heraldicon.org/arms/cVPbT8/2"><rdf:Description dc:title="Black Seabed" dc:creator="Odessit"></rdf:Description><cc:Work rdf:about="https://heraldicon.org/arms/cVPbT8/2"><cc:license rdf:resource="private"></cc:license><cc:attributionName>Odessit</cc:attributionName><cc:attributionURL rdf:resource="https://heraldicon.org/users/Odessit"></cc:attributionURL></cc:Work></rdf:RDF></metadata><defs><pattern width="20" height="20" patternUnits="userSpaceOnUse" id="void"><rect x="0" y="0" width="20" height="20" fill="#fff" class="light"></rect><rect x="0" y="0" width="10" height="10" fill="#ddd" class="dark"></rect><rect x="10" y="10" width="10" height="10" fill="#ddd" class="dark"></rect></pattern><pattern width="4" height="4" patternUnits="userSpaceOnUse" id="selected"><rect x="0" y="0" width="4" height="4" fill="#f5f5f5"></rect><g fill="#000"><circle cx="0" cy="0" r="0.3"></circle><circle cx="4" cy="0" r="0.3"></circle><circle cx="0" cy="4" r="0.3"></circle><circle cx="4" cy="4" r="0.3"></circle><circle cx="2" cy="2" r="0.3"></circle></g></pattern><pattern id="ermine" width="12.5" height="20" patternUnits="userSpaceOnUse" x="-3.125" y="-5"><rect x="0" y="0" width="12.5" height="20" fill="#f6f6f6"></rect><g fill="#333333"><path d="M 47.757634,0 C 60.324696,15.689314 25.136924,21.898666 44.167046,36.607392
    52.24587,41.673746 71.273896,30.723464 54.57765,17.322176
    52.423302,16.178163 62.11999,8.3349512 47.757634,0 Z m 21.182372,36.935142 c
    -3.23154,0.326846 -6.282816,2.290268 -9.155302,7.193166 -3.590588,8.33495
    12.209402,22.716724 22.98117,5.06625 C 83.483996,47.069952 94.0755,53.93163
    100,39.386326 89.946316,49.845864 79.713166,37.425428 70.377642,36.935142 Z
    M 29.80469,37.099022 C 20.469164,37.58931 10.053647,50.173186 0,39.55021
    5.9244804,54.095512 16.51881,47.070414 17.416458,49.358438 28.0087,67.008916
    43.805884,52.627142 40.215296,44.292192 36.983772,38.73555 33.395278,36.9356
    29.80469,37.099026 Z m 21.003542,10.13249 c -8.25835,37.262136
    -23.51556,63.576958 -40.211787,82.534868 7.001653,-1.96117
    14.718613,-7.19213 22.258843,-11.93164 -4.667764,9.80582 -9.154602,18.14082
    -13.822364,26.80264 2.692942,-0.98059 11.489886,-9.64435 23.338826,-22.3919
    1.795296,17.48703 4.305204,25.8241 8.07532,37.75452 3.052012,-11.93042
    5.208468,-19.9411 7.54234,-37.9184 7.181178,8.00805 14.001888,16.17984
    23.696484,23.04393 L 68.221186,117.34659 c 7.001634,4.41265
    14.72282,10.29262 22.083522,12.74406 C 72.710832,110.15215
    57.989412,84.493648 50.808232,47.231516 Z" transform="scale(0.0625,0.0625)"></path><path d="M 47.757634,0 C 60.324696,15.689314 25.136924,21.898666 44.167046,36.607392
    52.24587,41.673746 71.273896,30.723464 54.57765,17.322176
    52.423302,16.178163 62.11999,8.3349512 47.757634,0 Z m 21.182372,36.935142 c
    -3.23154,0.326846 -6.282816,2.290268 -9.155302,7.193166 -3.590588,8.33495
    12.209402,22.716724 22.98117,5.06625 C 83.483996,47.069952 94.0755,53.93163
    100,39.386326 89.946316,49.845864 79.713166,37.425428 70.377642,36.935142 Z
    M 29.80469,37.099022 C 20.469164,37.58931 10.053647,50.173186 0,39.55021
    5.9244804,54.095512 16.51881,47.070414 17.416458,49.358438 28.0087,67.008916
    43.805884,52.627142 40.215296,44.292192 36.983772,38.73555 33.395278,36.9356
    29.80469,37.099026 Z m 21.003542,10.13249 c -8.25835,37.262136
    -23.51556,63.576958 -40.211787,82.534868 7.001653,-1.96117
    14.718613,-7.19213 22.258843,-11.93164 -4.667764,9.80582 -9.154602,18.14082
    -13.822364,26.80264 2.692942,-0.98059 11.489886,-9.64435 23.338826,-22.3919
    1.795296,17.48703 4.305204,25.8241 8.07532,37.75452 3.052012,-11.93042
    5.208468,-19.9411 7.54234,-37.9184 7.181178,8.00805 14.001888,16.17984
    23.696484,23.04393 L 68.221186,117.34659 c 7.001634,4.41265
    14.72282,10.29262 22.083522,12.74406 C 72.710832,110.15215
    57.989412,84.493648 50.808232,47.231516 Z" transform="translate(6.25,10) scale(0.0625,0.0625)"></path></g></pattern><pattern id="ermines" width="12.5" height="20" patternUnits="userSpaceOnUse" x="-3.125" y="-5"><rect x="0" y="0" width="12.5" height="20" fill="#333333"></rect><g fill="#f6f6f6"><path d="M 47.757634,0 C 60.324696,15.689314 25.136924,21.898666 44.167046,36.607392
    52.24587,41.673746 71.273896,30.723464 54.57765,17.322176
    52.423302,16.178163 62.11999,8.3349512 47.757634,0 Z m 21.182372,36.935142 c
    -3.23154,0.326846 -6.282816,2.290268 -9.155302,7.193166 -3.590588,8.33495
    12.209402,22.716724 22.98117,5.06625 C 83.483996,47.069952 94.0755,53.93163
    100,39.386326 89.946316,49.845864 79.713166,37.425428 70.377642,36.935142 Z
    M 29.80469,37.099022 C 20.469164,37.58931 10.053647,50.173186 0,39.55021
    5.9244804,54.095512 16.51881,47.070414 17.416458,49.358438 28.0087,67.008916
    43.805884,52.627142 40.215296,44.292192 36.983772,38.73555 33.395278,36.9356
    29.80469,37.099026 Z m 21.003542,10.13249 c -8.25835,37.262136
    -23.51556,63.576958 -40.211787,82.534868 7.001653,-1.96117
    14.718613,-7.19213 22.258843,-11.93164 -4.667764,9.80582 -9.154602,18.14082
    -13.822364,26.80264 2.692942,-0.98059 11.489886,-9.64435 23.338826,-22.3919
    1.795296,17.48703 4.305204,25.8241 8.07532,37.75452 3.052012,-11.93042
    5.208468,-19.9411 7.54234,-37.9184 7.181178,8.00805 14.001888,16.17984
    23.696484,23.04393 L 68.221186,117.34659 c 7.001634,4.41265
    14.72282,10.29262 22.083522,12.74406 C 72.710832,110.15215
    57.989412,84.493648 50.808232,47.231516 Z" transform="scale(0.0625,0.0625)"></path><path d="M 47.757634,0 C 60.324696,15.689314 25.136924,21.898666 44.167046,36.607392
    52.24587,41.673746 71.273896,30.723464 54.57765,17.322176
    52.423302,16.178163 62.11999,8.3349512 47.757634,0 Z m 21.182372,36.935142 c
    -3.23154,0.326846 -6.282816,2.290268 -9.155302,7.193166 -3.590588,8.33495
    12.209402,22.716724 22.98117,5.06625 C 83.483996,47.069952 94.0755,53.93163
    100,39.386326 89.946316,49.845864 79.713166,37.425428 70.377642,36.935142 Z
    M 29.80469,37.099022 C 20.469164,37.58931 10.053647,50.173186 0,39.55021
    5.9244804,54.095512 16.51881,47.070414 17.416458,49.358438 28.0087,67.008916
    43.805884,52.627142 40.215296,44.292192 36.983772,38.73555 33.395278,36.9356
    29.80469,37.099026 Z m 21.003542,10.13249 c -8.25835,37.262136
    -23.51556,63.576958 -40.211787,82.534868 7.001653,-1.96117
    14.718613,-7.19213 22.258843,-11.93164 -4.667764,9.80582 -9.154602,18.14082
    -13.822364,26.80264 2.692942,-0.98059 11.489886,-9.64435 23.338826,-22.3919
    1.795296,17.48703 4.305204,25.8241 8.07532,37.75452 3.052012,-11.93042
    5.208468,-19.9411 7.54234,-37.9184 7.181178,8.00805 14.001888,16.17984
    23.696484,23.04393 L 68.221186,117.34659 c 7.001634,4.41265
    14.72282,10.29262 22.083522,12.74406 C 72.710832,110.15215
    57.989412,84.493648 50.808232,47.231516 Z" transform="translate(6.25,10) scale(0.0625,0.0625)"></path></g></pattern><pattern id="erminois" width="12.5" height="20" patternUnits="userSpaceOnUse" x="-3.125" y="-5"><rect x="0" y="0" width="12.5" height="20" fill="#f2bc51"></rect><g fill="#333333"><path d="M 47.757634,0 C 60.324696,15.689314 25.136924,21.898666 44.167046,36.607392
    52.24587,41.673746 71.273896,30.723464 54.57765,17.322176
    52.423302,16.178163 62.11999,8.3349512 47.757634,0 Z m 21.182372,36.935142 c
    -3.23154,0.326846 -6.282816,2.290268 -9.155302,7.193166 -3.590588,8.33495
    12.209402,22.716724 22.98117,5.06625 C 83.483996,47.069952 94.0755,53.93163
    100,39.386326 89.946316,49.845864 79.713166,37.425428 70.377642,36.935142 Z
    M 29.80469,37.099022 C 20.469164,37.58931 10.053647,50.173186 0,39.55021
    5.9244804,54.095512 16.51881,47.070414 17.416458,49.358438 28.0087,67.008916
    43.805884,52.627142 40.215296,44.292192 36.983772,38.73555 33.395278,36.9356
    29.80469,37.099026 Z m 21.003542,10.13249 c -8.25835,37.262136
    -23.51556,63.576958 -40.211787,82.534868 7.001653,-1.96117
    14.718613,-7.19213 22.258843,-11.93164 -4.667764,9.80582 -9.154602,18.14082
    -13.822364,26.80264 2.692942,-0.98059 11.489886,-9.64435 23.338826,-22.3919
    1.795296,17.48703 4.305204,25.8241 8.07532,37.75452 3.052012,-11.93042
    5.208468,-19.9411 7.54234,-37.9184 7.181178,8.00805 14.001888,16.17984
    23.696484,23.04393 L 68.221186,117.34659 c 7.001634,4.41265
    14.72282,10.29262 22.083522,12.74406 C 72.710832,110.15215
    57.989412,84.493648 50.808232,47.231516 Z" transform="scale(0.0625,0.0625)"></path><path d="M 47.757634,0 C 60.324696,15.689314 25.136924,21.898666 44.167046,36.607392
    52.24587,41.673746 71.273896,30.723464 54.57765,17.322176
    52.423302,16.178163 62.11999,8.3349512 47.757634,0 Z m 21.182372,36.935142 c
    -3.23154,0.326846 -6.282816,2.290268 -9.155302,7.193166 -3.590588,8.33495
    12.209402,22.716724 22.98117,5.06625 C 83.483996,47.069952 94.0755,53.93163
    100,39.386326 89.946316,49.845864 79.713166,37.425428 70.377642,36.935142 Z
    M 29.80469,37.099022 C 20.469164,37.58931 10.053647,50.173186 0,39.55021
    5.9244804,54.095512 16.51881,47.070414 17.416458,49.358438 28.0087,67.008916
    43.805884,52.627142 40.215296,44.292192 36.983772,38.73555 33.395278,36.9356
    29.80469,37.099026 Z m 21.003542,10.13249 c -8.25835,37.262136
    -23.51556,63.576958 -40.211787,82.534868 7.001653,-1.96117
    14.718613,-7.19213 22.258843,-11.93164 -4.667764,9.80582 -9.154602,18.14082
    -13.822364,26.80264 2.692942,-0.98059 11.489886,-9.64435 23.338826,-22.3919
    1.795296,17.48703 4.305204,25.8241 8.07532,37.75452 3.052012,-11.93042
    5.208468,-19.9411 7.54234,-37.9184 7.181178,8.00805 14.001888,16.17984
    23.696484,23.04393 L 68.221186,117.34659 c 7.001634,4.41265
    14.72282,10.29262 22.083522,12.74406 C 72.710832,110.15215
    57.989412,84.493648 50.808232,47.231516 Z" transform="translate(6.25,10) scale(0.0625,0.0625)"></path></g></pattern><pattern id="pean" width="12.5" height="20" patternUnits="userSpaceOnUse" x="-3.125" y="-5"><rect x="0" y="0" width="12.5" height="20" fill="#333333"></rect><g fill="#f2bc51"><path d="M 47.757634,0 C 60.324696,15.689314 25.136924,21.898666 44.167046,36.607392
    52.24587,41.673746 71.273896,30.723464 54.57765,17.322176
    52.423302,16.178163 62.11999,8.3349512 47.757634,0 Z m 21.182372,36.935142 c
    -3.23154,0.326846 -6.282816,2.290268 -9.155302,7.193166 -3.590588,8.33495
    12.209402,22.716724 22.98117,5.06625 C 83.483996,47.069952 94.0755,53.93163
    100,39.386326 89.946316,49.845864 79.713166,37.425428 70.377642,36.935142 Z
    M 29.80469,37.099022 C 20.469164,37.58931 10.053647,50.173186 0,39.55021
    5.9244804,54.095512 16.51881,47.070414 17.416458,49.358438 28.0087,67.008916
    43.805884,52.627142 40.215296,44.292192 36.983772,38.73555 33.395278,36.9356
    29.80469,37.099026 Z m 21.003542,10.13249 c -8.25835,37.262136
    -23.51556,63.576958 -40.211787,82.534868 7.001653,-1.96117
    14.718613,-7.19213 22.258843,-11.93164 -4.667764,9.80582 -9.154602,18.14082
    -13.822364,26.80264 2.692942,-0.98059 11.489886,-9.64435 23.338826,-22.3919
    1.795296,17.48703 4.305204,25.8241 8.07532,37.75452 3.052012,-11.93042
    5.208468,-19.9411 7.54234,-37.9184 7.181178,8.00805 14.001888,16.17984
    23.696484,23.04393 L 68.221186,117.34659 c 7.001634,4.41265
    14.72282,10.29262 22.083522,12.74406 C 72.710832,110.15215
    57.989412,84.493648 50.808232,47.231516 Z" transform="scale(0.0625,0.0625)"></path><path d="M 47.757634,0 C 60.324696,15.689314 25.136924,21.898666 44.167046,36.607392
    52.24587,41.673746 71.273896,30.723464 54.57765,17.322176
    52.423302,16.178163 62.11999,8.3349512 47.757634,0 Z m 21.182372,36.935142 c
    -3.23154,0.326846 -6.282816,2.290268 -9.155302,7.193166 -3.590588,8.33495
    12.209402,22.716724 22.98117,5.06625 C 83.483996,47.069952 94.0755,53.93163
    100,39.386326 89.946316,49.845864 79.713166,37.425428 70.377642,36.935142 Z
    M 29.80469,37.099022 C 20.469164,37.58931 10.053647,50.173186 0,39.55021
    5.9244804,54.095512 16.51881,47.070414 17.416458,49.358438 28.0087,67.008916
    43.805884,52.627142 40.215296,44.292192 36.983772,38.73555 33.395278,36.9356
    29.80469,37.099026 Z m 21.003542,10.13249 c -8.25835,37.262136
    -23.51556,63.576958 -40.211787,82.534868 7.001653,-1.96117
    14.718613,-7.19213 22.258843,-11.93164 -4.667764,9.80582 -9.154602,18.14082
    -13.822364,26.80264 2.692942,-0.98059 11.489886,-9.64435 23.338826,-22.3919
    1.795296,17.48703 4.305204,25.8241 8.07532,37.75452 3.052012,-11.93042
    5.208468,-19.9411 7.54234,-37.9184 7.181178,8.00805 14.001888,16.17984
    23.696484,23.04393 L 68.221186,117.34659 c 7.001634,4.41265
    14.72282,10.29262 22.083522,12.74406 C 72.710832,110.15215
    57.989412,84.493648 50.808232,47.231516 Z" transform="translate(6.25,10) scale(0.0625,0.0625)"></path></g></pattern></defs><defs><mask id="mask_1"><path d="M50,0h50v70c0,27.61424 -22.38576,50 -50,50c-27.61424,0 -50,-22.38576 -50,-50v-70z" clip-rule="evenodd" fill-rule="evenodd" fill="#fff" stroke="none"></path></mask></defs><g mask="url(#mask_1)"><g><path d="M50,0h50v70c0,27.61424 -22.38576,50 -50,50c-27.61424,0 -50,-22.38576 -50,-50v-70z" fill-rule="evenodd" fill="#f0f0f0"></path><defs><mask id="clip_3"><path d="M 50,-29.999999999999773 l0,180 L 185.58631827165678,638.1107457779643 A 600 600 0 1 1 185.58631827165712,-518.1107457779642 L 50,-29.999999999999773 z" clip-rule="evenodd" fill-rule="evenodd" fill="#fff" stroke="#fff" stroke-width="0.1"></path></mask></defs><g mask="url(#clip_3)"><rect y="-1000" fill="#f2bc51" width="2000" x="-1000" height="2000"></rect><g></g></g><defs><mask id="clip_4"><path d="M 50,-29.999999999999773 l0,180 L -85.58631827165678,638.1107457779643 A 600 600 0 1 0 -85.58631827165712,-518.1107457779642 L 50,-29.999999999999773 z" clip-rule="evenodd" fill-rule="evenodd" fill="#fff"></path></mask></defs><g mask="url(#clip_4)"><rect y="-1000" fill="#0c6793" width="2000" x="-1000" height="2000"></rect><g></g></g><g></g><g><g><g><defs><mask id="mask_8"><g fill="#000" stroke="none" stroke-width="0" style="clip-rule:evenodd" transform="translate(0,0)"><path d="M 47.773437,0.00390625 C 46.939981,-0.01755631 46.109077,0.04342177 45.300781,0.1953125 40.304158,1.1342502 34.441992,4.427556 31.240234,11.669922 c -3.111439,7.038067 -3.656258,17.667794 -2.18164,36.566406 l -1.822266,1.53125 1.90625,1.474609 c 0.371333,8.934703 1.329816,18.270771 0.130859,26.785157 -1.19225,8.466767 -4.523611,16.076798 -12.648437,21.835937 l -6.244141,-6.001953 c 2.893331,-1.565533 4.096544,-4.760042 3.685547,-7.679687 -0.220925,-1.56941 -0.879818,-3.060483 -1.964843,-4.167969 -1.085026,-1.107486 -2.608655,-1.815504 -4.4550786,-1.794922 -1.9536029,0.02178 -3.8965054,0.717735 -5.3378906,2.167969 -1.44138527,1.450234 -2.3544577,3.642869 -2.30664067,6.552734 0.06119999,3.724295 2.28959517,7.163669 5.45703127,9.658203 3.167436,2.494534 7.2958556,4.070174 11.3046876,4.033204 8.231427,-0.076 15.602475,-5.933624 19.410156,-15.466798 3.323413,-8.320714 3.049303,-18.748839 2.425781,-31.941406 l 2.105469,-1.595703 -2.015625,-2.013672 C 38.260928,41.405356 37.089139,31.221925 37.609375,22.541016 38.122843,13.973048 40.310567,6.9712274 46.353516,2.6484375 l 4.126953,4.4570312 c -0.895445,1.2984174 -1.220651,3.1870163 -0.708985,4.9531253 0.563408,1.944706 2.194585,3.659572 4.929688,3.636719 1.390505,-0.01161 2.790715,-0.477688 3.820312,-1.5 1.029598,-1.022313 1.651845,-2.58892 1.539063,-4.6542974 -0.164998,-3.0215296 -2.29594,-5.6504387 -5.126953,-7.375 C 52.810334,0.87259463 50.273808,0.06829394 47.773437,0.00390625 Z M 45.486328,1.1777344 c 2.931149,-0.55080594 6.292893,0.2367365 8.927734,1.8417969 2.634842,1.6050603 4.505603,3.9943041 4.646485,6.5742187 0.100697,1.844059 -0.427115,3.081319 -1.242188,3.890625 -0.815073,0.809306 -1.952557,1.201148 -3.125,1.210938 -2.334611,0.01951 -3.488936,-1.286818 -3.960937,-2.916016 -0.472001,-1.629198 -0.09866,-3.567604 0.695312,-4.4589845 L 51.730469,6.9824219 51.421875,6.6484375 46.458984,1.2890625 46.103516,1.53125 c -6.659882,4.5277651 -8.960331,12.074406 -9.492188,20.949219 -0.531856,8.874813 0.672551,19.148096 1.091797,29.373047 l 0.0078,0.195312 1.47461,1.474609 -1.605469,1.220704 0.01172,0.263671 C 38.223998,68.320997 38.475718,78.702179 35.244141,86.792969 31.548407,96.045863 24.516989,101.55922 16.753906,101.63086 13.01574,101.66534 9.073272,100.17135 6.078125,97.8125 3.082978,95.453653 1.05672,92.25664 1.0019531,88.923828 0.9576593,86.228362 1.7801476,84.336824 3.0175781,83.091797 4.2550087,81.84677 5.9336217,81.237974 7.6582031,81.21875 c 1.590328,-0.01773 2.8173239,0.564086 3.7285159,1.494141 0.911192,0.930054 1.494724,2.224108 1.689453,3.607421 0.389457,2.766628 -0.745749,5.803879 -3.6796876,7.009766 L 8.6875,93.621094 l 7.867187,7.560546 0.335938,-0.23242 C 25.51308,94.995627 29.029992,86.926996 30.263672,78.166016 31.497352,69.405036 30.493168,59.927648 30.130859,50.96875 l -0.0098,-0.232422 -1.292969,-1 1.263672,-1.0625 -0.01953,-0.257812 C 28.573207,29.384489 29.163254,18.844366 32.15625,12.074219 35.221356,5.140958 40.764922,2.0649548 45.486328,1.1777344 Z" fill="#000" fill-opacity=".992593" color="#000"></path><path d="m 51.054125,6.9880606 c -1.92644,2.16277 -1.42726,8.2503804 3.64246,8.2080204 2.56295,-0.0214 5.07756,-1.71922 4.86408,-5.6286604 C 59.254785,3.9659708 51.558175,-0.47173922 45.393835,0.68663078 40.534815,1.5997108 34.831436,4.7845706 31.698001,11.872391 c -3.06015,6.92205 -3.625981,17.52777 -2.125008,36.5836 l -1.541037,1.29587 1.599411,1.2375 c 0.726452,17.96317 3.979186,37.808127 -13.024425,49.548699 L 9.586201,93.791828 c 6.331137,-2.60218 4.939708,-13.150307 -1.933802,-13.073687 -3.678188,0.041 -7.24278637,2.60836 -7.15067537,8.213697 0.115967,7.057113 8.50965937,13.271052 16.25666437,13.199602 7.997263,-0.0738 15.198836,-5.759199 18.950547,-15.152242 3.28914,-8.234907 3.01468,-18.677117 2.382216,-31.995837 l 1.854484,-1.40758 -1.74312,-1.74199 c -0.840566,-20.50047 -4.800275,-41.06318 8.1818,-49.8891302 z" fill="#000" color="#000"></path></g></mask><mask id="mask_9"><g fill="#000" stroke="none" stroke-width="0" style="clip-rule:evenodd" transform="translate(0,0)"><path d="M 47.773437,0.00390625 C 46.939981,-0.01755631 46.109077,0.04342177 45.300781,0.1953125 40.304158,1.1342502 34.441992,4.427556 31.240234,11.669922 c -3.111439,7.038067 -3.656258,17.667794 -2.18164,36.566406 l -1.822266,1.53125 1.90625,1.474609 c 0.371333,8.934703 1.329816,18.270771 0.130859,26.785157 -1.19225,8.466767 -4.523611,16.076798 -12.648437,21.835937 l -6.244141,-6.001953 c 2.893331,-1.565533 4.096544,-4.760042 3.685547,-7.679687 -0.220925,-1.56941 -0.879818,-3.060483 -1.964843,-4.167969 -1.085026,-1.107486 -2.608655,-1.815504 -4.4550786,-1.794922 -1.9536029,0.02178 -3.8965054,0.717735 -5.3378906,2.167969 -1.44138527,1.450234 -2.3544577,3.642869 -2.30664067,6.552734 0.06119999,3.724295 2.28959517,7.163669 5.45703127,9.658203 3.167436,2.494534 7.2958556,4.070174 11.3046876,4.033204 8.231427,-0.076 15.602475,-5.933624 19.410156,-15.466798 3.323413,-8.320714 3.049303,-18.748839 2.425781,-31.941406 l 2.105469,-1.595703 -2.015625,-2.013672 C 38.260928,41.405356 37.089139,31.221925 37.609375,22.541016 38.122843,13.973048 40.310567,6.9712274 46.353516,2.6484375 l 4.126953,4.4570312 c -0.895445,1.2984174 -1.220651,3.1870163 -0.708985,4.9531253 0.563408,1.944706 2.194585,3.659572 4.929688,3.636719 1.390505,-0.01161 2.790715,-0.477688 3.820312,-1.5 1.029598,-1.022313 1.651845,-2.58892 1.539063,-4.6542974 -0.164998,-3.0215296 -2.29594,-5.6504387 -5.126953,-7.375 C 52.810334,0.87259463 50.273808,0.06829394 47.773437,0.00390625 Z M 45.486328,1.1777344 c 2.931149,-0.55080594 6.292893,0.2367365 8.927734,1.8417969 2.634842,1.6050603 4.505603,3.9943041 4.646485,6.5742187 0.100697,1.844059 -0.427115,3.081319 -1.242188,3.890625 -0.815073,0.809306 -1.952557,1.201148 -3.125,1.210938 -2.334611,0.01951 -3.488936,-1.286818 -3.960937,-2.916016 -0.472001,-1.629198 -0.09866,-3.567604 0.695312,-4.4589845 L 51.730469,6.9824219 51.421875,6.6484375 46.458984,1.2890625 46.103516,1.53125 c -6.659882,4.5277651 -8.960331,12.074406 -9.492188,20.949219 -0.531856,8.874813 0.672551,19.148096 1.091797,29.373047 l 0.0078,0.195312 1.47461,1.474609 -1.605469,1.220704 0.01172,0.263671 C 38.223998,68.320997 38.475718,78.702179 35.244141,86.792969 31.548407,96.045863 24.516989,101.55922 16.753906,101.63086 13.01574,101.66534 9.073272,100.17135 6.078125,97.8125 3.082978,95.453653 1.05672,92.25664 1.0019531,88.923828 0.9576593,86.228362 1.7801476,84.336824 3.0175781,83.091797 4.2550087,81.84677 5.9336217,81.237974 7.6582031,81.21875 c 1.590328,-0.01773 2.8173239,0.564086 3.7285159,1.494141 0.911192,0.930054 1.494724,2.224108 1.689453,3.607421 0.389457,2.766628 -0.745749,5.803879 -3.6796876,7.009766 L 8.6875,93.621094 l 7.867187,7.560546 0.335938,-0.23242 C 25.51308,94.995627 29.029992,86.926996 30.263672,78.166016 31.497352,69.405036 30.493168,59.927648 30.130859,50.96875 l -0.0098,-0.232422 -1.292969,-1 1.263672,-1.0625 -0.01953,-0.257812 C 28.573207,29.384489 29.163254,18.844366 32.15625,12.074219 35.221356,5.140958 40.764922,2.0649548 45.486328,1.1777344 Z" fill="#000" fill-opacity=".992593" color="#000"></path><path d="m 51.054125,6.9880606 c -1.92644,2.16277 -1.42726,8.2503804 3.64246,8.2080204 2.56295,-0.0214 5.07756,-1.71922 4.86408,-5.6286604 C 59.254785,3.9659708 51.558175,-0.47173922 45.393835,0.68663078 40.534815,1.5997108 34.831436,4.7845706 31.698001,11.872391 c -3.06015,6.92205 -3.625981,17.52777 -2.125008,36.5836 l -1.541037,1.29587 1.599411,1.2375 c 0.726452,17.96317 3.979186,37.808127 -13.024425,49.548699 L 9.586201,93.791828 c 6.331137,-2.60218 4.939708,-13.150307 -1.933802,-13.073687 -3.678188,0.041 -7.24278637,2.60836 -7.15067537,8.213697 0.115967,7.057113 8.50965937,13.271052 16.25666437,13.199602 7.997263,-0.0738 15.198836,-5.759199 18.950547,-15.152242 3.28914,-8.234907 3.01468,-18.677117 2.382216,-31.995837 l 1.854484,-1.40758 -1.74312,-1.74199 c -0.840566,-20.50047 -4.800275,-41.06318 8.1818,-49.8891302 z" fill="#fff" color="#000"></path></g></mask></defs><g transform="translate(50,31.16)rotate(90)scale(0.8956270948632007,0.8956270948632007)translate(-30.06796875,-51.315999999999995)"><metadata xmlns:rdf="http://www.w3.org/1999/02/22-rdf-syntax-ns#" xmlns:cc="http://creativecommons.org/ns#" xmlns:dc="http://purl.org/dc/elements/1.1/"><rdf:RDF><rdf:Description dc:title="F-hole" dc:creator="mnbram"></rdf:Description><cc:Work rdf:about="https://heraldicon.org/charges/aiRxde/1"><cc:license rdf:resource="https://creativecommons.org/publicdomain/mark/1.0/"></cc:license><cc:attributionName>F-hole by mnbram</cc:attributionName><cc:attributionURL rdf:resource="https://heraldicon.org/users/mnbram"></cc:attributionURL></cc:Work><cc:License rdf:about="https://creativecommons.org/publicdomain/mark/1.0/"></cc:License></rdf:RDF></metadata><g><g mask="url(#mask_9)"><g transform="translate(30.06796875,51.315999999999995)scale(1.1165361183637945,1.1165361183637945)rotate(-90)translate(-50,-31.16)"><defs><mask id="clip_11"><path d="M 50,-29.999999999999773 l0,180 L 185.58631827165678,638.1107457779643 A 600 600 0 1 1 185.58631827165712,-518.1107457779642 L 50,-29.999999999999773 z" clip-rule="evenodd" fill-rule="evenodd" fill="#fff" stroke="#fff" stroke-width="0.1"></path></mask></defs><g mask="url(#clip_11)"><rect y="-1000" fill="#0c6793" width="2000" x="-1000" height="2000"></rect><g></g></g><defs><mask id="clip_12"><path d="M 50,-29.999999999999773 l0,180 L -85.58631827165678,638.1107457779643 A 600 600 0 1 0 -85.58631827165712,-518.1107457779642 L 50,-29.999999999999773 z" clip-rule="evenodd" fill-rule="evenodd" fill="#fff"></path></mask></defs><g mask="url(#clip_12)"><rect y="-1000" fill="#f2bc51" width="2000" x="-1000" height="2000"></rect><g></g></g><g></g><g></g></g></g><g mask="url(#mask_8)"><g fill="#333333" stroke="none" stroke-width="0" style="clip-rule:evenodd" transform="translate(0,0)"><path d="M 47.773437,0.00390625 C 46.939981,-0.01755631 46.109077,0.04342177 45.300781,0.1953125 40.304158,1.1342502 34.441992,4.427556 31.240234,11.669922 c -3.111439,7.038067 -3.656258,17.667794 -2.18164,36.566406 l -1.822266,1.53125 1.90625,1.474609 c 0.371333,8.934703 1.329816,18.270771 0.130859,26.785157 -1.19225,8.466767 -4.523611,16.076798 -12.648437,21.835937 l -6.244141,-6.001953 c 2.893331,-1.565533 4.096544,-4.760042 3.685547,-7.679687 -0.220925,-1.56941 -0.879818,-3.060483 -1.964843,-4.167969 -1.085026,-1.107486 -2.608655,-1.815504 -4.4550786,-1.794922 -1.9536029,0.02178 -3.8965054,0.717735 -5.3378906,2.167969 -1.44138527,1.450234 -2.3544577,3.642869 -2.30664067,6.552734 0.06119999,3.724295 2.28959517,7.163669 5.45703127,9.658203 3.167436,2.494534 7.2958556,4.070174 11.3046876,4.033204 8.231427,-0.076 15.602475,-5.933624 19.410156,-15.466798 3.323413,-8.320714 3.049303,-18.748839 2.425781,-31.941406 l 2.105469,-1.595703 -2.015625,-2.013672 C 38.260928,41.405356 37.089139,31.221925 37.609375,22.541016 38.122843,13.973048 40.310567,6.9712274 46.353516,2.6484375 l 4.126953,4.4570312 c -0.895445,1.2984174 -1.220651,3.1870163 -0.708985,4.9531253 0.563408,1.944706 2.194585,3.659572 4.929688,3.636719 1.390505,-0.01161 2.790715,-0.477688 3.820312,-1.5 1.029598,-1.022313 1.651845,-2.58892 1.539063,-4.6542974 -0.164998,-3.0215296 -2.29594,-5.6504387 -5.126953,-7.375 C 52.810334,0.87259463 50.273808,0.06829394 47.773437,0.00390625 Z M 45.486328,1.1777344 c 2.931149,-0.55080594 6.292893,0.2367365 8.927734,1.8417969 2.634842,1.6050603 4.505603,3.9943041 4.646485,6.5742187 0.100697,1.844059 -0.427115,3.081319 -1.242188,3.890625 -0.815073,0.809306 -1.952557,1.201148 -3.125,1.210938 -2.334611,0.01951 -3.488936,-1.286818 -3.960937,-2.916016 -0.472001,-1.629198 -0.09866,-3.567604 0.695312,-4.4589845 L 51.730469,6.9824219 51.421875,6.6484375 46.458984,1.2890625 46.103516,1.53125 c -6.659882,4.5277651 -8.960331,12.074406 -9.492188,20.949219 -0.531856,8.874813 0.672551,19.148096 1.091797,29.373047 l 0.0078,0.195312 1.47461,1.474609 -1.605469,1.220704 0.01172,0.263671 C 38.223998,68.320997 38.475718,78.702179 35.244141,86.792969 31.548407,96.045863 24.516989,101.55922 16.753906,101.63086 13.01574,101.66534 9.073272,100.17135 6.078125,97.8125 3.082978,95.453653 1.05672,92.25664 1.0019531,88.923828 0.9576593,86.228362 1.7801476,84.336824 3.0175781,83.091797 4.2550087,81.84677 5.9336217,81.237974 7.6582031,81.21875 c 1.590328,-0.01773 2.8173239,0.564086 3.7285159,1.494141 0.911192,0.930054 1.494724,2.224108 1.689453,3.607421 0.389457,2.766628 -0.745749,5.803879 -3.6796876,7.009766 L 8.6875,93.621094 l 7.867187,7.560546 0.335938,-0.23242 C 25.51308,94.995627 29.029992,86.926996 30.263672,78.166016 31.497352,69.405036 30.493168,59.927648 30.130859,50.96875 l -0.0098,-0.232422 -1.292969,-1 1.263672,-1.0625 -0.01953,-0.257812 C 28.573207,29.384489 29.163254,18.844366 32.15625,12.074219 35.221356,5.140958 40.764922,2.0649548 45.486328,1.1777344 Z" fill="#333333" fill-opacity=".992593" color="#000"></path><path d="m 51.054125,6.9880606 c -1.92644,2.16277 -1.42726,8.2503804 3.64246,8.2080204 2.56295,-0.0214 5.07756,-1.71922 4.86408,-5.6286604 C 59.254785,3.9659708 51.558175,-0.47173922 45.393835,0.68663078 40.534815,1.5997108 34.831436,4.7845706 31.698001,11.872391 c -3.06015,6.92205 -3.625981,17.52777 -2.125008,36.5836 l -1.541037,1.29587 1.599411,1.2375 c 0.726452,17.96317 3.979186,37.808127 -13.024425,49.548699 L 9.586201,93.791828 c 6.331137,-2.60218 4.939708,-13.150307 -1.933802,-13.073687 -3.678188,0.041 -7.24278637,2.60836 -7.15067537,8.213697 0.115967,7.057113 8.50965937,13.271052 16.25666437,13.199602 7.997263,-0.0738 15.198836,-5.759199 18.950547,-15.152242 3.28914,-8.234907 3.01468,-18.677117 2.382216,-31.995837 l 1.854484,-1.40758 -1.74312,-1.74199 c -0.840566,-20.50047 -4.800275,-41.06318 8.1818,-49.8891302 z" fill="#333333" color="#000"></path></g></g></g></g></g></g></g><g><g><g><defs><mask id="mask_16"><g fill="#000" stroke="none" stroke-width="0" style="clip-rule:evenodd" transform="translate(0,0)"><path d="M 47.773437,0.00390625 C 46.939981,-0.01755631 46.109077,0.04342177 45.300781,0.1953125 40.304158,1.1342502 34.441992,4.427556 31.240234,11.669922 c -3.111439,7.038067 -3.656258,17.667794 -2.18164,36.566406 l -1.822266,1.53125 1.90625,1.474609 c 0.371333,8.934703 1.329816,18.270771 0.130859,26.785157 -1.19225,8.466767 -4.523611,16.076798 -12.648437,21.835937 l -6.244141,-6.001953 c 2.893331,-1.565533 4.096544,-4.760042 3.685547,-7.679687 -0.220925,-1.56941 -0.879818,-3.060483 -1.964843,-4.167969 -1.085026,-1.107486 -2.608655,-1.815504 -4.4550786,-1.794922 -1.9536029,0.02178 -3.8965054,0.717735 -5.3378906,2.167969 -1.44138527,1.450234 -2.3544577,3.642869 -2.30664067,6.552734 0.06119999,3.724295 2.28959517,7.163669 5.45703127,9.658203 3.167436,2.494534 7.2958556,4.070174 11.3046876,4.033204 8.231427,-0.076 15.602475,-5.933624 19.410156,-15.466798 3.323413,-8.320714 3.049303,-18.748839 2.425781,-31.941406 l 2.105469,-1.595703 -2.015625,-2.013672 C 38.260928,41.405356 37.089139,31.221925 37.609375,22.541016 38.122843,13.973048 40.310567,6.9712274 46.353516,2.6484375 l 4.126953,4.4570312 c -0.895445,1.2984174 -1.220651,3.1870163 -0.708985,4.9531253 0.563408,1.944706 2.194585,3.659572 4.929688,3.636719 1.390505,-0.01161 2.790715,-0.477688 3.820312,-1.5 1.029598,-1.022313 1.651845,-2.58892 1.539063,-4.6542974 -0.164998,-3.0215296 -2.29594,-5.6504387 -5.126953,-7.375 C 52.810334,0.87259463 50.273808,0.06829394 47.773437,0.00390625 Z M 45.486328,1.1777344 c 2.931149,-0.55080594 6.292893,0.2367365 8.927734,1.8417969 2.634842,1.6050603 4.505603,3.9943041 4.646485,6.5742187 0.100697,1.844059 -0.427115,3.081319 -1.242188,3.890625 -0.815073,0.809306 -1.952557,1.201148 -3.125,1.210938 -2.334611,0.01951 -3.488936,-1.286818 -3.960937,-2.916016 -0.472001,-1.629198 -0.09866,-3.567604 0.695312,-4.4589845 L 51.730469,6.9824219 51.421875,6.6484375 46.458984,1.2890625 46.103516,1.53125 c -6.659882,4.5277651 -8.960331,12.074406 -9.492188,20.949219 -0.531856,8.874813 0.672551,19.148096 1.091797,29.373047 l 0.0078,0.195312 1.47461,1.474609 -1.605469,1.220704 0.01172,0.263671 C 38.223998,68.320997 38.475718,78.702179 35.244141,86.792969 31.548407,96.045863 24.516989,101.55922 16.753906,101.63086 13.01574,101.66534 9.073272,100.17135 6.078125,97.8125 3.082978,95.453653 1.05672,92.25664 1.0019531,88.923828 0.9576593,86.228362 1.7801476,84.336824 3.0175781,83.091797 4.2550087,81.84677 5.9336217,81.237974 7.6582031,81.21875 c 1.590328,-0.01773 2.8173239,0.564086 3.7285159,1.494141 0.911192,0.930054 1.494724,2.224108 1.689453,3.607421 0.389457,2.766628 -0.745749,5.803879 -3.6796876,7.009766 L 8.6875,93.621094 l 7.867187,7.560546 0.335938,-0.23242 C 25.51308,94.995627 29.029992,86.926996 30.263672,78.166016 31.497352,69.405036 30.493168,59.927648 30.130859,50.96875 l -0.0098,-0.232422 -1.292969,-1 1.263672,-1.0625 -0.01953,-0.257812 C 28.573207,29.384489 29.163254,18.844366 32.15625,12.074219 35.221356,5.140958 40.764922,2.0649548 45.486328,1.1777344 Z" fill="#000" fill-opacity=".992593" color="#000"></path><path d="m 51.054125,6.9880606 c -1.92644,2.16277 -1.42726,8.2503804 3.64246,8.2080204 2.56295,-0.0214 5.07756,-1.71922 4.86408,-5.6286604 C 59.254785,3.9659708 51.558175,-0.47173922 45.393835,0.68663078 40.534815,1.5997108 34.831436,4.7845706 31.698001,11.872391 c -3.06015,6.92205 -3.625981,17.52777 -2.125008,36.5836 l -1.541037,1.29587 1.599411,1.2375 c 0.726452,17.96317 3.979186,37.808127 -13.024425,49.548699 L 9.586201,93.791828 c 6.331137,-2.60218 4.939708,-13.150307 -1.933802,-13.073687 -3.678188,0.041 -7.24278637,2.60836 -7.15067537,8.213697 0.115967,7.057113 8.50965937,13.271052 16.25666437,13.199602 7.997263,-0.0738 15.198836,-5.759199 18.950547,-15.152242 3.28914,-8.234907 3.01468,-18.677117 2.382216,-31.995837 l 1.854484,-1.40758 -1.74312,-1.74199 c -0.840566,-20.50047 -4.800275,-41.06318 8.1818,-49.8891302 z" fill="#000" color="#000"></path></g></mask><mask id="mask_17"><g fill="#000" stroke="none" stroke-width="0" style="clip-rule:evenodd" transform="translate(0,0)"><path d="M 47.773437,0.00390625 C 46.939981,-0.01755631 46.109077,0.04342177 45.300781,0.1953125 40.304158,1.1342502 34.441992,4.427556 31.240234,11.669922 c -3.111439,7.038067 -3.656258,17.667794 -2.18164,36.566406 l -1.822266,1.53125 1.90625,1.474609 c 0.371333,8.934703 1.329816,18.270771 0.130859,26.785157 -1.19225,8.466767 -4.523611,16.076798 -12.648437,21.835937 l -6.244141,-6.001953 c 2.893331,-1.565533 4.096544,-4.760042 3.685547,-7.679687 -0.220925,-1.56941 -0.879818,-3.060483 -1.964843,-4.167969 -1.085026,-1.107486 -2.608655,-1.815504 -4.4550786,-1.794922 -1.9536029,0.02178 -3.8965054,0.717735 -5.3378906,2.167969 -1.44138527,1.450234 -2.3544577,3.642869 -2.30664067,6.552734 0.06119999,3.724295 2.28959517,7.163669 5.45703127,9.658203 3.167436,2.494534 7.2958556,4.070174 11.3046876,4.033204 8.231427,-0.076 15.602475,-5.933624 19.410156,-15.466798 3.323413,-8.320714 3.049303,-18.748839 2.425781,-31.941406 l 2.105469,-1.595703 -2.015625,-2.013672 C 38.260928,41.405356 37.089139,31.221925 37.609375,22.541016 38.122843,13.973048 40.310567,6.9712274 46.353516,2.6484375 l 4.126953,4.4570312 c -0.895445,1.2984174 -1.220651,3.1870163 -0.708985,4.9531253 0.563408,1.944706 2.194585,3.659572 4.929688,3.636719 1.390505,-0.01161 2.790715,-0.477688 3.820312,-1.5 1.029598,-1.022313 1.651845,-2.58892 1.539063,-4.6542974 -0.164998,-3.0215296 -2.29594,-5.6504387 -5.126953,-7.375 C 52.810334,0.87259463 50.273808,0.06829394 47.773437,0.00390625 Z M 45.486328,1.1777344 c 2.931149,-0.55080594 6.292893,0.2367365 8.927734,1.8417969 2.634842,1.6050603 4.505603,3.9943041 4.646485,6.5742187 0.100697,1.844059 -0.427115,3.081319 -1.242188,3.890625 -0.815073,0.809306 -1.952557,1.201148 -3.125,1.210938 -2.334611,0.01951 -3.488936,-1.286818 -3.960937,-2.916016 -0.472001,-1.629198 -0.09866,-3.567604 0.695312,-4.4589845 L 51.730469,6.9824219 51.421875,6.6484375 46.458984,1.2890625 46.103516,1.53125 c -6.659882,4.5277651 -8.960331,12.074406 -9.492188,20.949219 -0.531856,8.874813 0.672551,19.148096 1.091797,29.373047 l 0.0078,0.195312 1.47461,1.474609 -1.605469,1.220704 0.01172,0.263671 C 38.223998,68.320997 38.475718,78.702179 35.244141,86.792969 31.548407,96.045863 24.516989,101.55922 16.753906,101.63086 13.01574,101.66534 9.073272,100.17135 6.078125,97.8125 3.082978,95.453653 1.05672,92.25664 1.0019531,88.923828 0.9576593,86.228362 1.7801476,84.336824 3.0175781,83.091797 4.2550087,81.84677 5.9336217,81.237974 7.6582031,81.21875 c 1.590328,-0.01773 2.8173239,0.564086 3.7285159,1.494141 0.911192,0.930054 1.494724,2.224108 1.689453,3.607421 0.389457,2.766628 -0.745749,5.803879 -3.6796876,7.009766 L 8.6875,93.621094 l 7.867187,7.560546 0.335938,-0.23242 C 25.51308,94.995627 29.029992,86.926996 30.263672,78.166016 31.497352,69.405036 30.493168,59.927648 30.130859,50.96875 l -0.0098,-0.232422 -1.292969,-1 1.263672,-1.0625 -0.01953,-0.257812 C 28.573207,29.384489 29.163254,18.844366 32.15625,12.074219 35.221356,5.140958 40.764922,2.0649548 45.486328,1.1777344 Z" fill="#000" fill-opacity=".992593" color="#000"></path><path d="m 51.054125,6.9880606 c -1.92644,2.16277 -1.42726,8.2503804 3.64246,8.2080204 2.56295,-0.0214 5.07756,-1.71922 4.86408,-5.6286604 C 59.254785,3.9659708 51.558175,-0.47173922 45.393835,0.68663078 40.534815,1.5997108 34.831436,4.7845706 31.698001,11.872391 c -3.06015,6.92205 -3.625981,17.52777 -2.125008,36.5836 l -1.541037,1.29587 1.599411,1.2375 c 0.726452,17.96317 3.979186,37.808127 -13.024425,49.548699 L 9.586201,93.791828 c 6.331137,-2.60218 4.939708,-13.150307 -1.933802,-13.073687 -3.678188,0.041 -7.24278637,2.60836 -7.15067537,8.213697 0.115967,7.057113 8.50965937,13.271052 16.25666437,13.199602 7.997263,-0.0738 15.198836,-5.759199 18.950547,-15.152242 3.28914,-8.234907 3.01468,-18.677117 2.382216,-31.995837 l 1.854484,-1.40758 -1.74312,-1.74199 c -0.840566,-20.50047 -4.800275,-41.06318 8.1818,-49.8891302 z" fill="#fff" color="#000"></path></g></mask></defs><g transform="translate(50,67.28)rotate(90)scale(0.8956270948632007,0.8956270948632007)translate(-30.06796875,-51.315999999999995)"><metadata xmlns:rdf="http://www.w3.org/1999/02/22-rdf-syntax-ns#" xmlns:cc="http://creativecommons.org/ns#" xmlns:dc="http://purl.org/dc/elements/1.1/"><rdf:RDF><rdf:Description dc:title="F-hole" dc:creator="mnbram"></rdf:Description><cc:Work rdf:about="https://heraldicon.org/charges/aiRxde/1"><cc:license rdf:resource="https://creativecommons.org/publicdomain/mark/1.0/"></cc:license><cc:attributionName>F-hole by mnbram</cc:attributionName><cc:attributionURL rdf:resource="https://heraldicon.org/users/mnbram"></cc:attributionURL></cc:Work><cc:License rdf:about="https://creativecommons.org/publicdomain/mark/1.0/"></cc:License></rdf:RDF></metadata><g><g mask="url(#mask_17)"><g transform="translate(30.06796875,51.315999999999995)scale(1.1165361183637945,1.1165361183637945)rotate(-90)translate(-50,-67.28)"><defs><mask id="clip_19"><path d="M 50,-29.999999999999773 l0,180 L 185.58631827165678,638.1107457779643 A 600 600 0 1 1 185.58631827165712,-518.1107457779642 L 50,-29.999999999999773 z" clip-rule="evenodd" fill-rule="evenodd" fill="#fff" stroke="#fff" stroke-width="0.1"></path></mask></defs><g mask="url(#clip_19)"><rect y="-1000" fill="#0c6793" width="2000" x="-1000" height="2000"></rect><g></g></g><defs><mask id="clip_20"><path d="M 50,-29.999999999999773 l0,180 L -85.58631827165678,638.1107457779643 A 600 600 0 1 0 -85.58631827165712,-518.1107457779642 L 50,-29.999999999999773 z" clip-rule="evenodd" fill-rule="evenodd" fill="#fff"></path></mask></defs><g mask="url(#clip_20)"><rect y="-1000" fill="#f2bc51" width="2000" x="-1000" height="2000"></rect><g></g></g><g></g><g><g><g><defs><mask id="mask_24"><g fill="#000" stroke="none" stroke-width="0" style="clip-rule:evenodd" transform="translate(0,0)"><path d="M 47.773437,0.00390625 C 46.939981,-0.01755631 46.109077,0.04342177 45.300781,0.1953125 40.304158,1.1342502 34.441992,4.427556 31.240234,11.669922 c -3.111439,7.038067 -3.656258,17.667794 -2.18164,36.566406 l -1.822266,1.53125 1.90625,1.474609 c 0.371333,8.934703 1.329816,18.270771 0.130859,26.785157 -1.19225,8.466767 -4.523611,16.076798 -12.648437,21.835937 l -6.244141,-6.001953 c 2.893331,-1.565533 4.096544,-4.760042 3.685547,-7.679687 -0.220925,-1.56941 -0.879818,-3.060483 -1.964843,-4.167969 -1.085026,-1.107486 -2.608655,-1.815504 -4.4550786,-1.794922 -1.9536029,0.02178 -3.8965054,0.717735 -5.3378906,2.167969 -1.44138527,1.450234 -2.3544577,3.642869 -2.30664067,6.552734 0.06119999,3.724295 2.28959517,7.163669 5.45703127,9.658203 3.167436,2.494534 7.2958556,4.070174 11.3046876,4.033204 8.231427,-0.076 15.602475,-5.933624 19.410156,-15.466798 3.323413,-8.320714 3.049303,-18.748839 2.425781,-31.941406 l 2.105469,-1.595703 -2.015625,-2.013672 C 38.260928,41.405356 37.089139,31.221925 37.609375,22.541016 38.122843,13.973048 40.310567,6.9712274 46.353516,2.6484375 l 4.126953,4.4570312 c -0.895445,1.2984174 -1.220651,3.1870163 -0.708985,4.9531253 0.563408,1.944706 2.194585,3.659572 4.929688,3.636719 1.390505,-0.01161 2.790715,-0.477688 3.820312,-1.5 1.029598,-1.022313 1.651845,-2.58892 1.539063,-4.6542974 -0.164998,-3.0215296 -2.29594,-5.6504387 -5.126953,-7.375 C 52.810334,0.87259463 50.273808,0.06829394 47.773437,0.00390625 Z M 45.486328,1.1777344 c 2.931149,-0.55080594 6.292893,0.2367365 8.927734,1.8417969 2.634842,1.6050603 4.505603,3.9943041 4.646485,6.5742187 0.100697,1.844059 -0.427115,3.081319 -1.242188,3.890625 -0.815073,0.809306 -1.952557,1.201148 -3.125,1.210938 -2.334611,0.01951 -3.488936,-1.286818 -3.960937,-2.916016 -0.472001,-1.629198 -0.09866,-3.567604 0.695312,-4.4589845 L 51.730469,6.9824219 51.421875,6.6484375 46.458984,1.2890625 46.103516,1.53125 c -6.659882,4.5277651 -8.960331,12.074406 -9.492188,20.949219 -0.531856,8.874813 0.672551,19.148096 1.091797,29.373047 l 0.0078,0.195312 1.47461,1.474609 -1.605469,1.220704 0.01172,0.263671 C 38.223998,68.320997 38.475718,78.702179 35.244141,86.792969 31.548407,96.045863 24.516989,101.55922 16.753906,101.63086 13.01574,101.66534 9.073272,100.17135 6.078125,97.8125 3.082978,95.453653 1.05672,92.25664 1.0019531,88.923828 0.9576593,86.228362 1.7801476,84.336824 3.0175781,83.091797 4.2550087,81.84677 5.9336217,81.237974 7.6582031,81.21875 c 1.590328,-0.01773 2.8173239,0.564086 3.7285159,1.494141 0.911192,0.930054 1.494724,2.224108 1.689453,3.607421 0.389457,2.766628 -0.745749,5.803879 -3.6796876,7.009766 L 8.6875,93.621094 l 7.867187,7.560546 0.335938,-0.23242 C 25.51308,94.995627 29.029992,86.926996 30.263672,78.166016 31.497352,69.405036 30.493168,59.927648 30.130859,50.96875 l -0.0098,-0.232422 -1.292969,-1 1.263672,-1.0625 -0.01953,-0.257812 C 28.573207,29.384489 29.163254,18.844366 32.15625,12.074219 35.221356,5.140958 40.764922,2.0649548 45.486328,1.1777344 Z" fill="#000" fill-opacity=".992593" color="#000"></path><path d="m 51.054125,6.9880606 c -1.92644,2.16277 -1.42726,8.2503804 3.64246,8.2080204 2.56295,-0.0214 5.07756,-1.71922 4.86408,-5.6286604 C 59.254785,3.9659708 51.558175,-0.47173922 45.393835,0.68663078 40.534815,1.5997108 34.831436,4.7845706 31.698001,11.872391 c -3.06015,6.92205 -3.625981,17.52777 -2.125008,36.5836 l -1.541037,1.29587 1.599411,1.2375 c 0.726452,17.96317 3.979186,37.808127 -13.024425,49.548699 L 9.586201,93.791828 c 6.331137,-2.60218 4.939708,-13.150307 -1.933802,-13.073687 -3.678188,0.041 -7.24278637,2.60836 -7.15067537,8.213697 0.115967,7.057113 8.50965937,13.271052 16.25666437,13.199602 7.997263,-0.0738 15.198836,-5.759199 18.950547,-15.152242 3.28914,-8.234907 3.01468,-18.677117 2.382216,-31.995837 l 1.854484,-1.40758 -1.74312,-1.74199 c -0.840566,-20.50047 -4.800275,-41.06318 8.1818,-49.8891302 z" fill="#000" color="#000"></path></g></mask><mask id="mask_25"><g fill="#000" stroke="none" stroke-width="0" style="clip-rule:evenodd" transform="translate(0,0)"><path d="M 47.773437,0.00390625 C 46.939981,-0.01755631 46.109077,0.04342177 45.300781,0.1953125 40.304158,1.1342502 34.441992,4.427556 31.240234,11.669922 c -3.111439,7.038067 -3.656258,17.667794 -2.18164,36.566406 l -1.822266,1.53125 1.90625,1.474609 c 0.371333,8.934703 1.329816,18.270771 0.130859,26.785157 -1.19225,8.466767 -4.523611,16.076798 -12.648437,21.835937 l -6.244141,-6.001953 c 2.893331,-1.565533 4.096544,-4.760042 3.685547,-7.679687 -0.220925,-1.56941 -0.879818,-3.060483 -1.964843,-4.167969 -1.085026,-1.107486 -2.608655,-1.815504 -4.4550786,-1.794922 -1.9536029,0.02178 -3.8965054,0.717735 -5.3378906,2.167969 -1.44138527,1.450234 -2.3544577,3.642869 -2.30664067,6.552734 0.06119999,3.724295 2.28959517,7.163669 5.45703127,9.658203 3.167436,2.494534 7.2958556,4.070174 11.3046876,4.033204 8.231427,-0.076 15.602475,-5.933624 19.410156,-15.466798 3.323413,-8.320714 3.049303,-18.748839 2.425781,-31.941406 l 2.105469,-1.595703 -2.015625,-2.013672 C 38.260928,41.405356 37.089139,31.221925 37.609375,22.541016 38.122843,13.973048 40.310567,6.9712274 46.353516,2.6484375 l 4.126953,4.4570312 c -0.895445,1.2984174 -1.220651,3.1870163 -0.708985,4.9531253 0.563408,1.944706 2.194585,3.659572 4.929688,3.636719 1.390505,-0.01161 2.790715,-0.477688 3.820312,-1.5 1.029598,-1.022313 1.651845,-2.58892 1.539063,-4.6542974 -0.164998,-3.0215296 -2.29594,-5.6504387 -5.126953,-7.375 C 52.810334,0.87259463 50.273808,0.06829394 47.773437,0.00390625 Z M 45.486328,1.1777344 c 2.931149,-0.55080594 6.292893,0.2367365 8.927734,1.8417969 2.634842,1.6050603 4.505603,3.9943041 4.646485,6.5742187 0.100697,1.844059 -0.427115,3.081319 -1.242188,3.890625 -0.815073,0.809306 -1.952557,1.201148 -3.125,1.210938 -2.334611,0.01951 -3.488936,-1.286818 -3.960937,-2.916016 -0.472001,-1.629198 -0.09866,-3.567604 0.695312,-4.4589845 L 51.730469,6.9824219 51.421875,6.6484375 46.458984,1.2890625 46.103516,1.53125 c -6.659882,4.5277651 -8.960331,12.074406 -9.492188,20.949219 -0.531856,8.874813 0.672551,19.148096 1.091797,29.373047 l 0.0078,0.195312 1.47461,1.474609 -1.605469,1.220704 0.01172,0.263671 C 38.223998,68.320997 38.475718,78.702179 35.244141,86.792969 31.548407,96.045863 24.516989,101.55922 16.753906,101.63086 13.01574,101.66534 9.073272,100.17135 6.078125,97.8125 3.082978,95.453653 1.05672,92.25664 1.0019531,88.923828 0.9576593,86.228362 1.7801476,84.336824 3.0175781,83.091797 4.2550087,81.84677 5.9336217,81.237974 7.6582031,81.21875 c 1.590328,-0.01773 2.8173239,0.564086 3.7285159,1.494141 0.911192,0.930054 1.494724,2.224108 1.689453,3.607421 0.389457,2.766628 -0.745749,5.803879 -3.6796876,7.009766 L 8.6875,93.621094 l 7.867187,7.560546 0.335938,-0.23242 C 25.51308,94.995627 29.029992,86.926996 30.263672,78.166016 31.497352,69.405036 30.493168,59.927648 30.130859,50.96875 l -0.0098,-0.232422 -1.292969,-1 1.263672,-1.0625 -0.01953,-0.257812 C 28.573207,29.384489 29.163254,18.844366 32.15625,12.074219 35.221356,5.140958 40.764922,2.0649548 45.486328,1.1777344 Z" fill="#000" fill-opacity=".992593" color="#000"></path><path d="m 51.054125,6.9880606 c -1.92644,2.16277 -1.42726,8.2503804 3.64246,8.2080204 2.56295,-0.0214 5.07756,-1.71922 4.86408,-5.6286604 C 59.254785,3.9659708 51.558175,-0.47173922 45.393835,0.68663078 40.534815,1.5997108 34.831436,4.7845706 31.698001,11.872391 c -3.06015,6.92205 -3.625981,17.52777 -2.125008,36.5836 l -1.541037,1.29587 1.599411,1.2375 c 0.726452,17.96317 3.979186,37.808127 -13.024425,49.548699 L 9.586201,93.791828 c 6.331137,-2.60218 4.939708,-13.150307 -1.933802,-13.073687 -3.678188,0.041 -7.24278637,2.60836 -7.15067537,8.213697 0.115967,7.057113 8.50965937,13.271052 16.25666437,13.199602 7.997263,-0.0738 15.198836,-5.759199 18.950547,-15.152242 3.28914,-8.234907 3.01468,-18.677117 2.382216,-31.995837 l 1.854484,-1.40758 -1.74312,-1.74199 c -0.840566,-20.50047 -4.800275,-41.06318 8.1818,-49.8891302 z" fill="#fff" color="#000"></path></g></mask></defs><g transform="translate(50,31.16)rotate(90)scale(0.8956270948632007,0.8956270948632007)translate(-30.06796875,-51.315999999999995)"><metadata xmlns:rdf="http://www.w3.org/1999/02/22-rdf-syntax-ns#" xmlns:cc="http://creativecommons.org/ns#" xmlns:dc="http://purl.org/dc/elements/1.1/"><rdf:RDF><rdf:Description dc:title="F-hole" dc:creator="mnbram"></rdf:Description><cc:Work rdf:about="https://heraldicon.org/charges/aiRxde/1"><cc:license rdf:resource="https://creativecommons.org/publicdomain/mark/1.0/"></cc:license><cc:attributionName>F-hole by mnbram</cc:attributionName><cc:attributionURL rdf:resource="https://heraldicon.org/users/mnbram"></cc:attributionURL></cc:Work><cc:License rdf:about="https://creativecommons.org/publicdomain/mark/1.0/"></cc:License></rdf:RDF></metadata><g><g mask="url(#mask_25)"><g transform="translate(30.06796875,51.315999999999995)scale(1.1165361183637945,1.1165361183637945)rotate(-90)translate(-50,-31.16)"><defs><mask id="clip_27"><path d="M 50,-29.999999999999773 l0,180 L 185.58631827165678,638.1107457779643 A 600 600 0 1 1 185.58631827165712,-518.1107457779642 L 50,-29.999999999999773 z" clip-rule="evenodd" fill-rule="evenodd" fill="#fff" stroke="#fff" stroke-width="0.1"></path></mask></defs><g mask="url(#clip_27)"><rect y="-1000" fill="#f2bc51" width="2000" x="-1000" height="2000"></rect><g></g></g><defs><mask id="clip_28"><path d="M 50,-29.999999999999773 l0,180 L -85.58631827165678,638.1107457779643 A 600 600 0 1 0 -85.58631827165712,-518.1107457779642 L 50,-29.999999999999773 z" clip-rule="evenodd" fill-rule="evenodd" fill="#fff"></path></mask></defs><g mask="url(#clip_28)"><rect y="-1000" fill="#0c6793" width="2000" x="-1000" height="2000"></rect><g></g></g><g></g><g></g></g></g><g mask="url(#mask_24)"><g fill="#333333" stroke="none" stroke-width="0" style="clip-rule:evenodd" transform="translate(0,0)"><path d="M 47.773437,0.00390625 C 46.939981,-0.01755631 46.109077,0.04342177 45.300781,0.1953125 40.304158,1.1342502 34.441992,4.427556 31.240234,11.669922 c -3.111439,7.038067 -3.656258,17.667794 -2.18164,36.566406 l -1.822266,1.53125 1.90625,1.474609 c 0.371333,8.934703 1.329816,18.270771 0.130859,26.785157 -1.19225,8.466767 -4.523611,16.076798 -12.648437,21.835937 l -6.244141,-6.001953 c 2.893331,-1.565533 4.096544,-4.760042 3.685547,-7.679687 -0.220925,-1.56941 -0.879818,-3.060483 -1.964843,-4.167969 -1.085026,-1.107486 -2.608655,-1.815504 -4.4550786,-1.794922 -1.9536029,0.02178 -3.8965054,0.717735 -5.3378906,2.167969 -1.44138527,1.450234 -2.3544577,3.642869 -2.30664067,6.552734 0.06119999,3.724295 2.28959517,7.163669 5.45703127,9.658203 3.167436,2.494534 7.2958556,4.070174 11.3046876,4.033204 8.231427,-0.076 15.602475,-5.933624 19.410156,-15.466798 3.323413,-8.320714 3.049303,-18.748839 2.425781,-31.941406 l 2.105469,-1.595703 -2.015625,-2.013672 C 38.260928,41.405356 37.089139,31.221925 37.609375,22.541016 38.122843,13.973048 40.310567,6.9712274 46.353516,2.6484375 l 4.126953,4.4570312 c -0.895445,1.2984174 -1.220651,3.1870163 -0.708985,4.9531253 0.563408,1.944706 2.194585,3.659572 4.929688,3.636719 1.390505,-0.01161 2.790715,-0.477688 3.820312,-1.5 1.029598,-1.022313 1.651845,-2.58892 1.539063,-4.6542974 -0.164998,-3.0215296 -2.29594,-5.6504387 -5.126953,-7.375 C 52.810334,0.87259463 50.273808,0.06829394 47.773437,0.00390625 Z M 45.486328,1.1777344 c 2.931149,-0.55080594 6.292893,0.2367365 8.927734,1.8417969 2.634842,1.6050603 4.505603,3.9943041 4.646485,6.5742187 0.100697,1.844059 -0.427115,3.081319 -1.242188,3.890625 -0.815073,0.809306 -1.952557,1.201148 -3.125,1.210938 -2.334611,0.01951 -3.488936,-1.286818 -3.960937,-2.916016 -0.472001,-1.629198 -0.09866,-3.567604 0.695312,-4.4589845 L 51.730469,6.9824219 51.421875,6.6484375 46.458984,1.2890625 46.103516,1.53125 c -6.659882,4.5277651 -8.960331,12.074406 -9.492188,20.949219 -0.531856,8.874813 0.672551,19.148096 1.091797,29.373047 l 0.0078,0.195312 1.47461,1.474609 -1.605469,1.220704 0.01172,0.263671 C 38.223998,68.320997 38.475718,78.702179 35.244141,86.792969 31.548407,96.045863 24.516989,101.55922 16.753906,101.63086 13.01574,101.66534 9.073272,100.17135 6.078125,97.8125 3.082978,95.453653 1.05672,92.25664 1.0019531,88.923828 0.9576593,86.228362 1.7801476,84.336824 3.0175781,83.091797 4.2550087,81.84677 5.9336217,81.237974 7.6582031,81.21875 c 1.590328,-0.01773 2.8173239,0.564086 3.7285159,1.494141 0.911192,0.930054 1.494724,2.224108 1.689453,3.607421 0.389457,2.766628 -0.745749,5.803879 -3.6796876,7.009766 L 8.6875,93.621094 l 7.867187,7.560546 0.335938,-0.23242 C 25.51308,94.995627 29.029992,86.926996 30.263672,78.166016 31.497352,69.405036 30.493168,59.927648 30.130859,50.96875 l -0.0098,-0.232422 -1.292969,-1 1.263672,-1.0625 -0.01953,-0.257812 C 28.573207,29.384489 29.163254,18.844366 32.15625,12.074219 35.221356,5.140958 40.764922,2.0649548 45.486328,1.1777344 Z" fill="#333333" fill-opacity=".992593" color="#000"></path><path d="m 51.054125,6.9880606 c -1.92644,2.16277 -1.42726,8.2503804 3.64246,8.2080204 2.56295,-0.0214 5.07756,-1.71922 4.86408,-5.6286604 C 59.254785,3.9659708 51.558175,-0.47173922 45.393835,0.68663078 40.534815,1.5997108 34.831436,4.7845706 31.698001,11.872391 c -3.06015,6.92205 -3.625981,17.52777 -2.125008,36.5836 l -1.541037,1.29587 1.599411,1.2375 c 0.726452,17.96317 3.979186,37.808127 -13.024425,49.548699 L 9.586201,93.791828 c 6.331137,-2.60218 4.939708,-13.150307 -1.933802,-13.073687 -3.678188,0.041 -7.24278637,2.60836 -7.15067537,8.213697 0.115967,7.057113 8.50965937,13.271052 16.25666437,13.199602 7.997263,-0.0738 15.198836,-5.759199 18.950547,-15.152242 3.28914,-8.234907 3.01468,-18.677117 2.382216,-31.995837 l 1.854484,-1.40758 -1.74312,-1.74199 c -0.840566,-20.50047 -4.800275,-41.06318 8.1818,-49.8891302 z" fill="#333333" color="#000"></path></g></g></g></g></g></g></g><g></g></g></g><g mask="url(#mask_16)"><g fill="#333333" stroke="none" stroke-width="0" style="clip-rule:evenodd" transform="translate(0,0)"><path d="M 47.773437,0.00390625 C 46.939981,-0.01755631 46.109077,0.04342177 45.300781,0.1953125 40.304158,1.1342502 34.441992,4.427556 31.240234,11.669922 c -3.111439,7.038067 -3.656258,17.667794 -2.18164,36.566406 l -1.822266,1.53125 1.90625,1.474609 c 0.371333,8.934703 1.329816,18.270771 0.130859,26.785157 -1.19225,8.466767 -4.523611,16.076798 -12.648437,21.835937 l -6.244141,-6.001953 c 2.893331,-1.565533 4.096544,-4.760042 3.685547,-7.679687 -0.220925,-1.56941 -0.879818,-3.060483 -1.964843,-4.167969 -1.085026,-1.107486 -2.608655,-1.815504 -4.4550786,-1.794922 -1.9536029,0.02178 -3.8965054,0.717735 -5.3378906,2.167969 -1.44138527,1.450234 -2.3544577,3.642869 -2.30664067,6.552734 0.06119999,3.724295 2.28959517,7.163669 5.45703127,9.658203 3.167436,2.494534 7.2958556,4.070174 11.3046876,4.033204 8.231427,-0.076 15.602475,-5.933624 19.410156,-15.466798 3.323413,-8.320714 3.049303,-18.748839 2.425781,-31.941406 l 2.105469,-1.595703 -2.015625,-2.013672 C 38.260928,41.405356 37.089139,31.221925 37.609375,22.541016 38.122843,13.973048 40.310567,6.9712274 46.353516,2.6484375 l 4.126953,4.4570312 c -0.895445,1.2984174 -1.220651,3.1870163 -0.708985,4.9531253 0.563408,1.944706 2.194585,3.659572 4.929688,3.636719 1.390505,-0.01161 2.790715,-0.477688 3.820312,-1.5 1.029598,-1.022313 1.651845,-2.58892 1.539063,-4.6542974 -0.164998,-3.0215296 -2.29594,-5.6504387 -5.126953,-7.375 C 52.810334,0.87259463 50.273808,0.06829394 47.773437,0.00390625 Z M 45.486328,1.1777344 c 2.931149,-0.55080594 6.292893,0.2367365 8.927734,1.8417969 2.634842,1.6050603 4.505603,3.9943041 4.646485,6.5742187 0.100697,1.844059 -0.427115,3.081319 -1.242188,3.890625 -0.815073,0.809306 -1.952557,1.201148 -3.125,1.210938 -2.334611,0.01951 -3.488936,-1.286818 -3.960937,-2.916016 -0.472001,-1.629198 -0.09866,-3.567604 0.695312,-4.4589845 L 51.730469,6.9824219 51.421875,6.6484375 46.458984,1.2890625 46.103516,1.53125 c -6.659882,4.5277651 -8.960331,12.074406 -9.492188,20.949219 -0.531856,8.874813 0.672551,19.148096 1.091797,29.373047 l 0.0078,0.195312 1.47461,1.474609 -1.605469,1.220704 0.01172,0.263671 C 38.223998,68.320997 38.475718,78.702179 35.244141,86.792969 31.548407,96.045863 24.516989,101.55922 16.753906,101.63086 13.01574,101.66534 9.073272,100.17135 6.078125,97.8125 3.082978,95.453653 1.05672,92.25664 1.0019531,88.923828 0.9576593,86.228362 1.7801476,84.336824 3.0175781,83.091797 4.2550087,81.84677 5.9336217,81.237974 7.6582031,81.21875 c 1.590328,-0.01773 2.8173239,0.564086 3.7285159,1.494141 0.911192,0.930054 1.494724,2.224108 1.689453,3.607421 0.389457,2.766628 -0.745749,5.803879 -3.6796876,7.009766 L 8.6875,93.621094 l 7.867187,7.560546 0.335938,-0.23242 C 25.51308,94.995627 29.029992,86.926996 30.263672,78.166016 31.497352,69.405036 30.493168,59.927648 30.130859,50.96875 l -0.0098,-0.232422 -1.292969,-1 1.263672,-1.0625 -0.01953,-0.257812 C 28.573207,29.384489 29.163254,18.844366 32.15625,12.074219 35.221356,5.140958 40.764922,2.0649548 45.486328,1.1777344 Z" fill="#333333" fill-opacity=".992593" color="#000"></path><path d="m 51.054125,6.9880606 c -1.92644,2.16277 -1.42726,8.2503804 3.64246,8.2080204 2.56295,-0.0214 5.07756,-1.71922 4.86408,-5.6286604 C 59.254785,3.9659708 51.558175,-0.47173922 45.393835,0.68663078 40.534815,1.5997108 34.831436,4.7845706 31.698001,11.872391 c -3.06015,6.92205 -3.625981,17.52777 -2.125008,36.5836 l -1.541037,1.29587 1.599411,1.2375 c 0.726452,17.96317 3.979186,37.808127 -13.024425,49.548699 L 9.586201,93.791828 c 6.331137,-2.60218 4.939708,-13.150307 -1.933802,-13.073687 -3.678188,0.041 -7.24278637,2.60836 -7.15067537,8.213697 0.115967,7.057113 8.50965937,13.271052 16.25666437,13.199602 7.997263,-0.0738 15.198836,-5.759199 18.950547,-15.152242 3.28914,-8.234907 3.01468,-18.677117 2.382216,-31.995837 l 1.854484,-1.40758 -1.74312,-1.74199 c -0.840566,-20.50047 -4.800275,-41.06318 8.1818,-49.8891302 z" fill="#333333" color="#000"></path></g></g></g></g></g></g></g></g></g></g></g><g transform="translate(0,0)" style="transition:transform 0.5s"></g></g></svg>